<?xml version="1.0" encoding="UTF-8" standalone="no"?>
<!-- Generator: Adobe Illustrator 17.1.0, SVG Export Plug-In . SVG Version: 6.00 Build 0)  -->

<svg
   xmlns:dc="http://purl.org/dc/elements/1.1/"
   xmlns:cc="http://creativecommons.org/ns#"
   xmlns:rdf="http://www.w3.org/1999/02/22-rdf-syntax-ns#"
   xmlns:svg="http://www.w3.org/2000/svg"
   xmlns="http://www.w3.org/2000/svg"
   xmlns:sodipodi="http://sodipodi.sourceforge.net/DTD/sodipodi-0.dtd"
   xmlns:inkscape="http://www.inkscape.org/namespaces/inkscape"
   version="1.1"
   id="Layer_1"
   x="0px"
   y="0px"
   viewBox="0 0 1000 1000"
   enable-background="new 0 0 1000 1000"
   xml:space="preserve"
   inkscape:version="0.91 r13725"
   sodipodi:docname="appicon.svg"
   inkscape:export-filename="C:\P\bluetooth-bulb-simulator\resources\icon.png"
   inkscape:export-xdpi="46.080002"
   inkscape:export-ydpi="46.080002"><metadata
     id="metadata43"><rdf:RDF><cc:Work
         rdf:about=""><dc:format>image/svg+xml</dc:format><dc:type
           rdf:resource="http://purl.org/dc/dcmitype/StillImage" /></cc:Work></rdf:RDF></metadata><defs
     id="defs41"><inkscape:path-effect
       is_visible="true"
       id="path-effect4298"
       effect="spiro" /></defs><sodipodi:namedview
     pagecolor="#ffffff"
     bordercolor="#666666"
     borderopacity="1"
     objecttolerance="10"
     gridtolerance="10"
     guidetolerance="10"
     inkscape:pageopacity="0"
     inkscape:pageshadow="2"
     inkscape:window-width="1366"
     inkscape:window-height="705"
     id="namedview39"
     showgrid="false"
     inkscape:zoom="0.45254834"
     inkscape:cx="631.02591"
     inkscape:cy="434.72627"
     inkscape:window-x="-8"
     inkscape:window-y="-8"
     inkscape:window-maximized="1"
     inkscape:current-layer="layer1" /><g
     id="g3"><path
       fill-rule="evenodd"
       clip-rule="evenodd"
       fill="#FFDD2A"
       d="M416.2,846.9c-7.9,0-14.3-6.5-14.3-14.3c0-7.9,6.4-14.4,14.3-14.4   h167.6c7.9,0,14.4,6.5,14.4,14.4c0,7.9-6.5,14.3-14.4,14.3H416.2z M416.2,846.9"
       id="path5" /><path
       fill-rule="evenodd"
       clip-rule="evenodd"
       fill="#FFDD2A"
       d="M434.8,904.3c-7.9,0-14.4-6.6-14.4-14.5c0-7.9,6.5-14.4,14.4-14.4   h130.4c7.9,0,14.5,6.5,14.5,14.4c0,7.9-6.6,14.5-14.5,14.5H434.8z M434.8,904.3"
       id="path7" /><path
       fill-rule="evenodd"
       clip-rule="evenodd"
       fill="#FFDD2A"
       d="M514.5,108.9c0,8.1-6.5,14.5-14.4,14.5c-7.9,0-14.5-6.5-14.5-14.5   V53c0-7.9,6.6-14.4,14.5-14.4c7.9,0,14.4,6.5,14.4,14.4V108.9z M514.5,108.9"
       id="path9" /><path
       fill-rule="evenodd"
       clip-rule="evenodd"
       fill="#FFDD2A"
       d="M681.5,262.8c46.3,46.3,75.1,110.6,75.1,181.4   c0,27.7-4.4,54.4-12.6,79.5c-8.5,25.9-21,50.2-36.7,71.7c-26.5,36.2-47.9,60-64.7,78.3c-30.1,33.3-43.1,47.8-43.1,96.3   c0,7.9-6.5,14.4-14.5,14.4H416.3c-8.1,0-14.5-6.5-14.5-14.4c0-48.1-13.4-62.7-43.3-95.5c-16.9-18.3-38.6-42.1-65.7-79.2   c-15.7-21.6-28.3-45.8-36.6-71.7c-8.2-25.1-12.6-51.9-12.6-79.5c0-34.8,6.9-67.9,19.5-98.1l0.3-0.6c12.9-31.2,32-59.4,55.3-82.7   c23.6-23.6,51.9-42.5,83.3-55.6c30.3-12.6,63.5-19.5,98.1-19.5c34.6,0,67.7,6.9,98.1,19.5C629.6,220.1,657.9,239.2,681.5,262.8   L681.5,262.8z"
       id="path11" /><path
       fill-rule="evenodd"
       clip-rule="evenodd"
       fill="#FFDD2A"
       d="M727.7,444.2c0-62.9-25.5-119.8-66.6-161   c-21.1-21-46.2-38-73.9-49.4c-26.8-11.2-56.2-17.3-87.1-17.3c-30.9,0-60.4,6.2-87.1,17.3c-27.7,11.5-52.8,28.5-73.9,49.4   c-20.8,20.8-37.7,45.7-49.1,73.2l-0.3,0.7c-11.2,26.7-17.3,56.2-17.3,87.1c0,24.6,4,48.4,11.2,70.6c7.6,23,18.6,44.6,32.6,63.6   c26.1,35.6,47.4,58.8,63.8,76.9v0.2c32,35,47.9,52.5,50.4,100.3h140.7c2.5-48.1,18.2-65.4,50.3-101.1   c16.1-17.9,36.8-40.8,62.8-76.3c13.9-19.1,25.1-40.5,32.6-63.5C723.7,492.6,727.7,468.8,727.7,444.2L727.7,444.2z"
       id="path13" /><path
       fill-rule="evenodd"
       clip-rule="evenodd"
       fill="#FFDD2A"
       d="M727.7,444.2"
       id="path15" /><path
       fill-rule="evenodd"
       clip-rule="evenodd"
       fill="#FFDD2A"
       d="M453.5,961.3c-7.9,0-14.4-6.5-14.4-14.4s6.5-14.3,14.4-14.3h93.1   c8.1,0,14.5,6.4,14.5,14.3s-6.5,14.4-14.5,14.4H453.5z M453.5,961.3"
       id="path17" /><path
       fill-rule="evenodd"
       clip-rule="evenodd"
       fill="#FFDD2A"
       d="M677,160.1c-4,6.9-12.8,9.2-19.7,5.3c-6.9-3.8-9.2-12.6-5.3-19.5   l28-48.4c3.8-6.9,12.6-9.2,19.5-5.3c6.9,3.9,9.2,12.8,5.3,19.5L677,160.1z M677,160.1"
       id="path19" /><path
       fill-rule="evenodd"
       clip-rule="evenodd"
       fill="#FFDD2A"
       d="M348,145.9c3.9,6.9,1.6,15.7-5.3,19.5c-6.7,3.9-15.5,1.6-19.5-5.3   l-28-48.4c-4-6.7-1.5-15.5,5.3-19.5c6.9-4,15.7-1.6,19.7,5.3L348,145.9z M348,145.9"
       id="path21" /><path
       fill-rule="evenodd"
       clip-rule="evenodd"
       fill="#FFDD2A"
       d="M222.4,261c6.8,3.8,9.1,12.6,5.3,19.5c-4,6.9-12.8,9.2-19.7,5.3   l-48.4-27.9c-6.9-4-9.2-12.8-5.3-19.7c3.9-6.9,12.8-9.2,19.6-5.3L222.4,261z M222.4,261"
       id="path23" /><path
       fill-rule="evenodd"
       clip-rule="evenodd"
       fill="#FFDD2A"
       d="M791.9,285.8c-6.7,3.9-15.5,1.6-19.5-5.3   c-4-6.9-1.6-15.7,5.3-19.5l48.4-28c6.9-4,15.7-1.6,19.5,5.3c3.9,6.9,1.6,15.7-5.3,19.7L791.9,285.8z M791.9,285.8"
       id="path25" /></g><g
     transform="matrix(11.577931,0,0,11.577931,-222.7957,-5672.747)"
     id="layer1"
     inkscape:label="Layer 1"><g
       transform="translate(-105.73779,318.26101)"
       id="g4188"><g
         id="g4232"><g
           transform="translate(8.0000008,0)"
           id="g4304"><path
             id="path4252"
             d="m 160.71339,203.89207 2.00284,2.00284 -2.00161,2.00121 -0.001,-4.00405 0,0 z m 0,12.26034 2.00284,-2.00243 -2.00161,-2.00162 -0.001,4.00405 0,0 z m -2.13841,-6.13017 -4.32966,-4.34072 1.25495,-1.25454 3.44906,3.45071 0,-8.2694 6.2727,6.27229 -4.14166,4.14166 4.14248,4.14289 -6.27311,6.27229 0,-8.2698 -3.44988,3.45111 -1.25495,-1.25536 4.33007,-4.34113 0,0 z m 1.15992,12.11289 c 5.28931,0 8.93374,-2.51277 8.93374,-12.11248 0,-9.5993 -3.64443,-12.11166 -8.93374,-12.11166 -5.28889,0 -8.93537,2.51277 -8.93537,12.11166 0,9.59971 3.64607,12.11248 8.93537,12.11248 l 0,0 z"
             inkscape:connector-curvature="0"
             style="fill:#0060a9" /><path
             style="fill:#ffffff;fill-opacity:1;fill-rule:evenodd;stroke:#000000;stroke-width:0;stroke-linecap:butt;stroke-linejoin:miter;stroke-miterlimit:4;stroke-dasharray:none;stroke-opacity:1"
             d="m 158.9178,199.5934 0,8.26758 -3.44922,-3.44922 -1.25391,1.2539 4.32813,4.33985 -4.33008,4.34179 1.25586,1.25586 3.44922,-3.45117 0,8.26953 6.27344,-6.27148 -4.14258,-4.14453 4.14258,-4.14063 -6.27344,-6.27148 z m 1.76367,4.2832 2.00391,2.00195 -2.00196,2.00196 -0.002,-4.00391 z m 0.002,8.25586 2.00196,2.00195 -2.00391,2.00196 0.002,-4.00391 z"
             id="path4296"
             inkscape:connector-curvature="0" /></g></g></g><text
       xml:space="preserve"
       style="font-style:normal;font-weight:normal;font-size:26.77129173px;line-height:125%;font-family:Sans;letter-spacing:0px;word-spacing:0px;fill:#0060a9;fill-opacity:1;stroke:none;stroke-width:1px;stroke-linecap:butt;stroke-linejoin:miter;stroke-opacity:1;"
       x="36.781639"
       y="570.30194"
       id="text4211"
       sodipodi:linespacing="125%"><tspan
         sodipodi:role="line"
         id="tspan4213"
         x="36.781639"
         y="570.30194">SIM</tspan></text>
</g></svg>